<svg id="Capa_1" enable-background="new 0 0 511.262 511.262" height="512" viewBox="0 0 511.262 511.262" width="512" xmlns="http://www.w3.org/2000/svg"><g><path d="m398.055 86.496c-3.551 2.133-4.7 6.74-2.566 10.291 3.231 5.38 6.197 11.005 8.813 16.719 1.262 2.754 3.98 4.379 6.824 4.379 1.044 0 2.106-.22 3.118-.683 3.766-1.726 5.421-6.176 3.696-9.942-2.849-6.219-6.076-12.342-9.595-18.197-2.131-3.551-6.74-4.701-10.29-2.567z"/><path d="m426.581 196.961c-4.104-.513-7.857 2.405-8.368 6.517-1.186 9.526-3.187 19.011-5.948 28.189l-34.465 114.569c-.211.7-.318 1.429-.318 2.16v54.331c0 4.143 3.357 7.5 7.5 7.5s7.5-3.357 7.5-7.5v-53.227l34.146-113.512c3.004-9.983 5.181-20.299 6.47-30.659.511-4.11-2.407-7.857-6.517-8.368z"/><path d="m384.981 427.189c-4.143 0-7.5 3.357-7.5 7.5v68.129c0 4.143 3.357 7.5 7.5 7.5s7.5-3.357 7.5-7.5v-68.129c0-4.142-3.357-7.5-7.5-7.5z"/><path d="m153.677 412.156-21.071-.083c-9.159-.035-16.934-6.612-18.486-15.639l-12.691-73.767c-.619-3.599-3.74-6.229-7.392-6.229l-26.615-.001c.245-21.661 6.406-42.801 17.853-61.216l9.103-14.645c2.104-3.389 3.055-7.281 2.748-11.259l-2.04-26.389c-.318-4.13-3.914-7.229-8.056-6.899-4.13.319-7.219 3.926-6.899 8.056l2.04 26.387c.06.773-.126 1.531-.534 2.188l-9.102 14.643c-13.157 21.168-20.115 45.53-20.12 70.453-.001 3.64 1.412 7.068 3.979 9.652 2.581 2.598 6.016 4.028 9.67 4.028l21.653.001 11.62 67.538c2.79 16.216 16.757 28.031 33.211 28.096l21.071.083h.03c4.128 0 7.482-3.339 7.499-7.471.016-4.139-3.329-7.51-7.471-7.527z"/><path d="m207.186 412.365-21.547-.084c-.01 0-.02 0-.03 0-4.128 0-7.482 3.339-7.499 7.471-.016 4.143 3.329 7.513 7.471 7.529l21.547.084c7.719.03 13.999 6.335 13.999 14.055v62.342c0 4.143 3.357 7.5 7.5 7.5s7.5-3.357 7.5-7.5v-62.342c-.001-15.958-12.983-28.991-28.941-29.055z"/><path d="m97.944 92.724c-3.351 6.383-6.327 13.037-8.846 19.78-1.45 3.88.521 8.201 4.4 9.65.865.323 1.752.477 2.624.477 3.04 0 5.9-1.862 7.026-4.877 2.3-6.155 5.017-12.23 8.076-18.058 1.925-3.668.513-8.201-3.154-10.127-3.666-1.923-8.201-.514-10.126 3.155z"/><path d="m169.635 36.46c1.255 0 2.527-.315 3.696-.979 23.595-13.399 50.517-20.481 77.854-20.481 28.604 0 55.646 6.838 80.377 20.323 3.638 1.982 8.192.642 10.176-2.994 1.982-3.637.643-8.192-2.994-10.176-26.96-14.7-56.419-22.153-87.56-22.153-29.929 0-59.41 7.759-85.259 22.438-3.603 2.045-4.864 6.623-2.818 10.225 1.38 2.433 3.916 3.798 6.528 3.797z"/><path d="m350.031 86.94c-18.426-18.444-42.422-30.871-67.933-36.005-25.537-5.139-52.521-2.982-76.709 6.806-25.099 10.157-46.642 28.371-61.395 51.014-13.866 21.283-21.676 46.414-21.797 71.847-.172 36.289 13.982 70.296 39.855 95.755 2.952 2.905 7.701 2.867 10.606-.085 2.905-2.953 2.867-7.701-.085-10.606-22.966-22.599-35.53-52.782-35.377-84.993.184-38.9 19.453-73.577 48.868-95.08-5.188 9.866-8.086 21.028-8.086 32.686 0 38.856 31.612 70.468 70.469 70.468h14.367c30.585 0 55.467 24.883 55.467 55.468 0 10.466-2.928 20.654-8.468 29.462-8.909 14.165-24.077 23.365-41.735 25.351-24.388 2.743-49.742-2.686-71.026-14.822-.106-.061-.213-.122-.319-.182-3.592-2.061-8.177-.823-10.239 2.769s-.823 8.176 2.769 10.239c20.816 11.959 45.344 17.965 69.332 17.625 33.694-.478 67.545-15.339 91.438-39.31 24.837-24.919 38.697-57.881 39.027-92.815.341-36.109-13.52-70.057-39.029-95.592zm-10.621 177.818c-4.45 4.465-9.196 8.526-14.185 12.18 5.281-10.052 8.057-21.257 8.057-32.723 0-38.856-31.611-70.468-70.467-70.468h-14.367c-30.586 0-55.469-24.883-55.469-55.468 0-24.662 16.479-46.501 40.131-53.294 6.973-1.359 14.156-2.107 21.495-2.169 32.025-.294 62.171 12.061 84.813 34.726 22.642 22.663 34.945 52.797 34.643 84.849-.291 30.989-12.598 60.242-34.651 82.367z"/><path d="m275.926 92.255c-16.369 0-29.686 13.316-29.686 29.686s13.316 29.686 29.686 29.686 29.687-13.316 29.687-29.686-13.318-29.686-29.687-29.686zm0 44.371c-8.098 0-14.686-6.588-14.686-14.686s6.588-14.686 14.686-14.686c8.099 0 14.687 6.588 14.687 14.686s-6.589 14.686-14.687 14.686z"/><path d="m265.022 240.554c0-16.369-13.317-29.686-29.687-29.686s-29.686 13.316-29.686 29.686 13.316 29.686 29.686 29.686 29.687-13.317 29.687-29.686zm-44.372 0c0-8.098 6.588-14.686 14.686-14.686 8.099 0 14.687 6.588 14.687 14.686s-6.588 14.686-14.687 14.686c-8.098-.001-14.686-6.589-14.686-14.686z"/><path d="m363.435 75.75c.815 0 1.641-.099 2.459-.3l44.141-10.854c3.23-.795 5.792-3.279 6.686-6.483.895-3.204-.012-6.655-2.363-9.008l-11.858-11.855 19.664-19.663c2.93-2.929 2.93-7.678.001-10.606-2.929-2.93-7.678-2.929-10.606-.001l-19.665 19.664-11.86-11.86c-2.35-2.349-5.8-3.254-8.999-2.366-3.201.89-5.688 3.445-6.487 6.671l-10.931 44.064c-.862 3.481.136 7.075 2.67 9.613 1.938 1.941 4.495 2.984 7.148 2.984zm13.212-43.139 19.864 19.863-26.401 6.491z"/><path d="m491.975 145.549c-.63-4.095-4.459-6.901-8.554-6.272l-27.485 4.229-2.551-16.578c0-.001-.001-.001-.001-.002-.506-3.284-2.751-6.053-5.858-7.228-3.11-1.175-6.624-.582-9.175 1.544l-34.869 29.069c-2.755 2.296-4.076 5.784-3.534 9.329.542 3.546 2.845 6.479 6.159 7.849l42.012 17.349c1.134.469 2.329.698 3.519.698 2.037 0 4.056-.673 5.707-1.971 2.616-2.056 3.928-5.375 3.422-8.663l-2.549-16.57 27.485-4.229c4.093-.63 6.901-4.46 6.272-8.554zm-72.719 11.14 20.857-17.388 4.271 27.765z"/><path d="m108.761 37.25-11.855 11.855c-2.352 2.353-3.258 5.804-2.363 9.008.894 3.204 3.455 5.688 6.687 6.483l44.138 10.853c.819.202 1.645.301 2.46.301 2.653 0 5.21-1.043 7.147-2.984 2.535-2.538 3.533-6.132 2.67-9.615l-10.93-44.063c-.8-3.225-3.286-5.78-6.487-6.67-3.197-.888-6.648.018-8.999 2.366l-11.86 11.86-19.664-19.665c-2.93-2.928-7.678-2.928-10.607 0-2.929 2.93-2.929 7.678 0 10.607zm25.854-4.639 6.537 26.354-26.401-6.491z"/><path d="m53.92 183.566c1.651 1.297 3.668 1.968 5.704 1.968 1.189 0 2.385-.229 3.518-.696l42.014-17.35c3.314-1.369 5.617-4.303 6.159-7.849.542-3.545-.779-7.033-3.533-9.329l-34.87-29.069c-2.551-2.126-6.067-2.72-9.175-1.544-3.107 1.175-5.353 3.943-5.858 7.228 0 0-.001.001-.001.002l-2.551 16.578-27.485-4.229c-4.1-.632-7.924 2.18-8.554 6.272-.63 4.094 2.179 7.924 6.272 8.554l27.485 4.229-2.551 16.576c-.503 3.287.81 6.606 3.426 8.659zm17.229-44.264 20.857 17.388-25.129 10.377z"/></g></svg>