<svg id="Capa_1" enable-background="new 0 0 512 512" height="512" viewBox="0 0 512 512" width="512" xmlns="http://www.w3.org/2000/svg"><g><path d="m350.682 276.21c18.97-15.617 14.159-36.941 14.87-41.17h1.445c20.526 0 37.226-16.7 37.226-37.227 0-9.091-4.467-17.154-11.316-22.124v-21.116c0-57.082-38.594-105.314-91.057-119.988-5.763-20.305-24.316-34.585-45.85-34.585s-40.087 14.28-45.849 34.585c-52.463 14.673-91.057 62.907-91.057 119.988v21.117c-6.85 4.97-11.316 13.033-11.316 22.125 0 20.526 16.699 37.226 37.226 37.226h1.445v9.626c0 12.495 5.639 23.945 14.87 31.544-44.145 22.281-72.855 68.001-72.855 118.297v100.66c0 9.281 7.551 16.832 16.833 16.832h40.718c4.143 0 7.5-3.357 7.5-7.5s-3.357-7.5-7.5-7.5h-40.718c-1.011 0-1.833-.822-1.833-1.832v-100.66c0-48.542 30.16-92.264 75.296-109.626l13.355 4.402 22.423 34.518c1.437 2.212 3.842 3.415 6.296 3.415 1.4 0 2.817-.392 4.079-1.212 3.474-2.256 4.46-6.901 2.203-10.375l-12.24-18.843 28.328 9.338c8.109 2.672 17.192 2.768 25.593 0l28.328-9.338-41.125 63.307-12.523-19.281c-2.258-3.474-6.902-4.461-10.376-2.203-3.474 2.256-4.46 6.901-2.204 10.375l16.266 25.041c-8.705 14.991-36.923 67.646-38.765 122.975h-32.396c-4.143 0-7.5 3.357-7.5 7.5s3.357 7.5 7.5 7.5h230.702c9.281 0 16.833-7.551 16.833-16.832v-100.66c0-50.297-28.71-96.017-72.855-118.299zm16.315-56.17h-1.445v-34.551h11.347c6.796 0 12.324 5.529 12.324 12.325-.001 12.255-9.972 22.226-22.226 22.226zm-110.997-205.04c11.852 0 22.387 6.309 28.124 15.997-5.172-.658-10.443-.997-15.791-.997h-24.665c-5.349 0-10.619.339-15.792.997 5.736-9.688 16.271-15.997 28.124-15.997zm-121.906 139.573c0-60.419 49.155-109.573 109.573-109.573h24.665c60.419 0 109.573 49.154 109.573 109.573v15.941c-1.376-.05-.064-.012-12.354-.025v-24.722c0-2.016-.812-3.947-2.252-5.358-1.44-1.41-3.401-2.185-5.403-2.14-46.215.945-75.882-7.581-88.191-25.379-3.56-5.146-9.151-8.343-15.342-8.769-6.073-.417-11.918 1.918-16.037 6.411-18.086 19.717-45.612 28.795-84.172 27.737-2.021-.074-3.984.71-5.436 2.122s-2.27 3.351-2.27 5.375v24.722c-12.291.013-10.982-.025-12.354.025zm10.909 65.467c-12.255 0-22.226-9.971-22.226-22.227 0-6.796 5.528-12.324 12.324-12.324h11.347v34.551zm119.098 71.839c-5.224 1.72-10.977 1.722-16.202 0-12.067-3.978-49.556-16.336-68.676-22.639-10.632-3.504-17.774-13.38-17.774-24.574 0-11.122 0-80.981 0-91.317 39.196-.242 68.015-10.966 87.93-32.675 1.397-1.521 3.087-1.642 3.956-1.587 1.613.111 3.083.963 4.033 2.336 14.795 21.393 45.313 31.862 93.184 31.919v91.324c0 11.194-7.143 21.07-17.774 24.574zm144.436 203.289c0 1.01-.822 1.832-1.833 1.832h-183.296c2.201-59.169 37.781-117.273 38.916-119.107l57.561-88.608 13.356-4.403c45.136 17.363 75.296 61.085 75.296 109.626z"/><path d="m274.256 242.49c-12.286 5.157-24.229 5.155-36.513 0-3.819-1.599-8.215.194-9.818 4.014s.194 8.216 4.014 9.818c7.983 3.35 16.022 5.024 24.062 5.024 8.038 0 16.077-1.675 24.061-5.024 3.819-1.603 5.616-5.998 4.014-9.818-1.604-3.818-5.999-5.615-9.82-4.014z"/><path d="m486.764 0c-4.143 0-7.5 3.357-7.5 7.5v169.982c0 16.827-6.55 32.649-18.443 44.553l-24.72 24.739c-2.093 2.093-5.589 2.16-7.734-.083-2.035-2.128-2.012-5.437.053-7.534l21.976-22.324c4.357-4.427 6.995-10.278 7.428-16.477l5.229-74.97c.358-5.136-3.02-9.711-8.031-10.881-5.014-1.171-10.067 1.438-12.019 6.201l-16.394 40.012c-1.038 2.536-4.822 1.776-4.822-.951v-35.091c0-18.483 6.437-36.548 18.125-50.865 3.606-4.417 5.593-9.99 5.593-15.693v-50.618c0-4.143-3.357-7.5-7.5-7.5s-7.5 3.357-7.5 7.5v50.618c0 2.256-.785 4.46-2.212 6.207-13.868 16.988-21.506 38.421-21.506 60.352v35.091c0 9.652 7.853 17.506 17.505 17.506 7.135 0 13.493-4.267 16.198-10.868l5.622-13.724-3.252 46.631c-.185 2.633-1.305 5.118-3.155 6.998l-21.975 22.324c-7.791 7.915-7.88 20.401-.201 28.426 7.914 8.273 21.084 8.423 29.184.315l24.72-24.739c14.724-14.735 22.832-34.323 22.832-55.154v-169.983c-.001-4.143-3.358-7.5-7.501-7.5z"/><path d="m94.27 228.634-21.974-22.322c-1.852-1.881-2.972-4.366-3.156-6.999l-3.253-46.633 5.623 13.725c2.705 6.603 9.063 10.869 16.198 10.869 9.652 0 17.505-7.854 17.505-17.506v-35.091c0-21.931-7.638-43.363-21.506-60.352-1.427-1.747-2.212-3.951-2.212-6.207v-50.618c0-4.143-3.357-7.5-7.5-7.5s-7.5 3.357-7.5 7.5v50.618c0 5.703 1.986 11.276 5.593 15.693 11.688 14.317 18.125 32.382 18.125 50.865v35.091c0 2.724-3.783 3.49-4.822.95l-16.394-40.011c-1.952-4.764-7.013-7.373-12.017-6.201-5.013 1.168-8.392 5.743-8.034 10.881l5.23 74.971c.433 6.197 3.07 12.049 7.429 16.477l21.975 22.322c2.064 2.099 2.088 5.407.053 7.534-2.099 2.194-5.588 2.233-7.734.084l-24.72-24.739c-11.894-11.903-18.443-27.726-18.443-44.553v-169.982c0-4.143-3.357-7.5-7.5-7.5s-7.5 3.357-7.5 7.5v169.982c0 20.831 8.108 40.419 22.832 55.154l24.72 24.739c8.091 8.1 21.26 7.966 29.184-.315 7.678-8.024 7.589-20.51-.202-28.426z"/><path d="m231.235 200.029c-1.512-3.858-5.863-5.758-9.719-4.248-4.214 1.651-7.202 1.651-11.42 0-3.855-1.509-8.209.391-9.719 4.248-1.511 3.856.392 8.208 4.248 9.719 3.866 1.515 7.523 2.271 11.181 2.271s7.315-.757 11.181-2.271c3.857-1.511 5.759-5.862 4.248-9.719z"/><path d="m301.904 195.781c-4.215 1.65-7.205 1.65-11.42 0-3.857-1.509-8.209.391-9.719 4.248-1.511 3.856.392 8.208 4.248 9.719 3.866 1.515 7.523 2.271 11.181 2.271s7.314-.757 11.181-2.271c3.856-1.511 5.759-5.862 4.248-9.719-1.512-3.857-5.864-5.758-9.719-4.248z"/></g></svg>